<mxfile host="app.diagrams.net" modified="2024-02-03T04:09:21.769Z" agent="Mozilla/5.0 (Windows NT 10.0; Win64; x64) AppleWebKit/537.36 (KHTML, like Gecko) Chrome/121.0.0.0 Safari/537.36" version="23.1.1" etag="k4WOE9UB0347-_yAaNxj" type="github">
  <diagram name="Page-1" id="T4dcNorzOLPvcd8AAFLM">
    <mxGraphModel>
      <root>
        <mxCell id="0" />
        <mxCell id="1" parent="0" />
      </root>
    </mxGraphModel>
  </diagram>
</mxfile>
